<svg class="w-auto h-8" 
xmlns="http://www.w3.org/2000/svg" xmlns:xlink="http://www.w3.org/1999/xlink" viewBox="0 0 71 68">
<g id="svgPath">
<path d="M 8.667 6.667 C 8.300 7.033, 8 11.688, 8 17.009 C 8 29.073, 10.183 34.114, 16.960 37.697 C 22.453 40.602, 27.351 40.618, 33.038 37.750 C 41.253 33.608, 44.209 23.491, 39.697 14.960 C 36.114 8.183, 31.073 6, 19.009 6 C 13.688 6, 9.033 6.300, 8.667 6.667 M 52 7.294 C 48.634 8.997, 46.660 13.376, 47.424 17.448 C 48.229 21.740, 50.910 24.044, 55.874 24.710 C 59.398 25.183, 60.286 24.868, 62.952 22.202 C 70.836 14.317, 61.972 2.250, 52 7.294 M 12.941 50.059 C 10.057 52.943, 10.681 57.693, 14.296 60.381 C 16.873 62.297, 17.302 62.341, 19.781 60.949 C 23.802 58.693, 25.198 55.283, 23.469 51.941 C 21.177 47.507, 16.355 46.645, 12.941 50.059" stroke="none" fill="#5826ee" fill-rule="evenodd"></path><path d="M 42.481 31.332 C 35.410 34.557, 31.007 42.891, 32.413 50.388 C 34.143 59.610, 41.017 64.194, 54.050 64.817 C 66.439 65.409, 67.011 64.962, 66.956 54.715 C 66.873 39.081, 61.767 31.357, 50.895 30.421 C 47.501 30.128, 44.381 30.466, 42.481 31.332" stroke="none" fill="#f38207" fill-rule="evenodd"></path><path d="M 8.200 6.200 C 7.404 6.996, 7.065 10.618, 7.194 16.950 L 7.387 26.500 7.944 16.500 L 8.500 6.500 18.500 5.944 L 28.500 5.387 18.950 5.194 C 12.618 5.065, 8.996 5.404, 8.200 6.200 M 53 6.014 C 51.945 6.706, 52.538 6.807, 55 6.355 C 59.313 5.564, 60.126 4.995, 56.917 5.015 C 55.587 5.024, 53.825 5.473, 53 6.014 M 48.872 8.750 C 47.629 10.336, 47.664 10.371, 49.250 9.128 C 50.916 7.821, 51.445 7, 50.622 7 C 50.415 7, 49.627 7.787, 48.872 8.750 M 63.902 9.385 C 65.056 10.972, 66 13.723, 66 15.500 C 66 17.277, 65.056 20.028, 63.902 21.615 L 61.805 24.500 64.402 21.694 C 66.136 19.822, 67 17.762, 67 15.500 C 67 13.238, 66.136 11.178, 64.402 9.306 L 61.805 6.500 63.902 9.385 M 42.158 23 C 42.158 24.375, 42.385 24.938, 42.662 24.250 C 42.940 23.563, 42.940 22.438, 42.662 21.750 C 42.385 21.063, 42.158 21.625, 42.158 23 M 48 21.378 C 48 21.585, 48.788 22.373, 49.750 23.128 C 51.336 24.371, 51.371 24.336, 50.128 22.750 C 48.821 21.084, 48 20.555, 48 21.378 M 53 24.986 C 53.825 25.527, 55.587 25.976, 56.917 25.985 C 60.126 26.005, 59.313 25.436, 55 24.645 C 52.538 24.193, 51.945 24.294, 53 24.986 M 12.455 49.455 C 10.931 50.978, 10.039 52.969, 10.102 54.705 C 10.198 57.317, 10.258 57.274, 11.017 54.049 C 12.746 46.705, 20.184 45.806, 23.845 52.500 C 24.447 53.600, 24.953 53.917, 24.970 53.205 C 25.022 50.988, 20.220 47, 17.500 47 C 16.075 47, 13.805 48.105, 12.455 49.455 M 11 58.378 C 11 58.585, 11.787 59.373, 12.750 60.128 C 14.336 61.371, 14.371 61.336, 13.128 59.750 C 11.821 58.084, 11 57.555, 11 58.378 M 21.139 60.033 C 19.841 61.115, 19.209 62, 19.734 62 C 20.260 62, 21.505 61.100, 22.500 60 C 24.787 57.473, 24.195 57.487, 21.139 60.033" stroke="none" fill="none" fill-rule="evenodd"></path>
<path d="M -0 34.013 L -0 68.025 35.750 67.763 L 71.500 67.500 71.763 33.750 L 72.027 0 36.013 0 L 0 0 -0 34.013 M 0.449 34.500 C 0.449 53.200, 0.584 60.709, 0.749 51.186 C 0.913 41.663, 0.913 26.363, 0.748 17.186 C 0.583 8.009, 0.449 15.800, 0.449 34.500 M 7.379 6.455 C 7.072 7.255, 6.974 12.804, 7.160 18.786 C 7.476 28.906, 7.695 29.919, 10.308 33.341 C 14.581 38.938, 20.121 41.357, 27.192 40.716 L 32.990 40.191 32.259 42.845 C 30.211 50.281, 33.245 57.931, 39.922 62.165 C 44.340 64.967, 44.844 65.052, 55.494 64.780 L 66.500 64.500 66.500 52.340 C 66.500 40.235, 66.486 40.161, 63.402 36.340 C 59.332 31.295, 51.402 28.213, 46.120 29.623 L 42.500 30.589 42.500 23.391 C 42.500 16.870, 42.215 15.840, 39.475 12.451 C 34.417 6.197, 31.085 5, 18.734 5 C 10.208 5, 7.820 5.306, 7.379 6.455 M 49.104 8.535 C 44.914 13.306, 44.914 17.694, 49.104 22.465 C 51.788 25.522, 52.812 26, 56.681 26 C 60.291 26, 61.717 25.436, 64.077 23.077 C 66.462 20.691, 67 19.306, 67 15.543 C 67 11.727, 66.477 10.421, 63.966 7.966 C 61.540 5.595, 60.056 5, 56.569 5 C 52.828 5, 51.766 5.503, 49.104 8.535 M 12 49 C 10.762 50.238, 10 52.333, 10 54.500 C 10 59.098, 12.902 62, 17.500 62 C 19.667 62, 21.762 61.238, 23 60 C 25.652 57.348, 25.652 51.652, 23 49 C 21.762 47.762, 19.667 47, 17.500 47 C 15.333 47, 13.238 47.762, 12 49" stroke="none" fill="none" fill-rule="evenodd"></path>
<path d="M 51.507 5.989 C 51.157 6.555, 51.558 6.723, 52.448 6.382 C 54.180 5.717, 54.497 5, 53.059 5 C 52.541 5, 51.843 5.445, 51.507 5.989 M 60 6 C 60.825 6.533, 61.950 6.969, 62.500 6.969 C 63.050 6.969, 62.825 6.533, 62 6 C 61.175 5.467, 60.050 5.031, 59.500 5.031 C 58.950 5.031, 59.175 5.467, 60 6 M 31 6.393 C 31 6.609, 31.698 7.054, 32.552 7.382 C 33.442 7.723, 33.843 7.555, 33.493 6.989 C 32.906 6.038, 31 5.583, 31 6.393 M 37 10.500 C 38.292 11.875, 39.574 13, 39.849 13 C 40.124 13, 39.292 11.875, 38 10.500 C 36.708 9.125, 35.426 8, 35.151 8 C 34.876 8, 35.708 9.125, 37 10.500 M 46.079 13.583 C 46.127 14.748, 46.364 14.985, 46.683 14.188 C 46.972 13.466, 46.936 12.603, 46.604 12.271 C 46.272 11.939, 46.036 12.529, 46.079 13.583 M 40.564 15.293 C 40.940 16.279, 41.499 16.834, 41.807 16.526 C 42.115 16.219, 41.808 15.412, 41.124 14.733 C 40.136 13.753, 40.022 13.868, 40.564 15.293 M 46.079 17.583 C 46.127 18.748, 46.364 18.985, 46.683 18.188 C 46.972 17.466, 46.936 16.603, 46.604 16.271 C 46.272 15.939, 46.036 16.529, 46.079 17.583 M 42.079 19.583 C 42.127 20.748, 42.364 20.985, 42.683 20.188 C 42.972 19.466, 42.936 18.603, 42.604 18.271 C 42.272 17.939, 42.036 18.529, 42.079 19.583 M 62.102 23.586 C 60.233 24.914, 59.196 26, 59.796 26 C 60.397 26, 62.151 24.889, 63.694 23.532 C 67.228 20.423, 66.520 20.447, 62.102 23.586 M 51.733 25.124 C 52.412 25.808, 53.219 26.115, 53.526 25.807 C 53.834 25.499, 53.279 24.940, 52.293 24.564 C 50.868 24.022, 50.753 24.136, 51.733 25.124 M 42.079 26.583 C 42.127 27.748, 42.364 27.985, 42.683 27.188 C 42.972 26.466, 42.936 25.603, 42.604 25.271 C 42.272 24.939, 42.036 25.529, 42.079 26.583 M 8 29.941 C 8 30.459, 8.445 31.157, 8.989 31.493 C 9.555 31.843, 9.723 31.442, 9.382 30.552 C 8.717 28.820, 8 28.503, 8 29.941 M 40.638 30.500 C 40.322 31.325, 40.499 32, 41.031 32 C 41.564 32, 42 31.325, 42 30.500 C 42 29.675, 41.823 29, 41.607 29 C 41.391 29, 40.955 29.675, 40.638 30.500 M 47.250 29.689 C 48.212 29.941, 49.788 29.941, 50.750 29.689 C 51.712 29.438, 50.925 29.232, 49 29.232 C 47.075 29.232, 46.288 29.438, 47.250 29.689 M 57.500 31.643 C 58.050 32.131, 59.847 33.648, 61.493 35.015 C 64.380 37.412, 64.416 37.417, 62.504 35.157 C 61.414 33.869, 59.617 32.351, 58.511 31.785 C 57.405 31.219, 56.950 31.155, 57.500 31.643 M 12 35.500 C 13.292 36.875, 14.574 38, 14.849 38 C 15.124 38, 14.292 36.875, 13 35.500 C 11.708 34.125, 10.426 33, 10.151 33 C 9.876 33, 10.708 34.125, 12 35.500 M 32 39 C 30.718 39.828, 30.754 39.972, 32.250 39.985 C 33.212 39.993, 34 39.550, 34 39 C 34 37.780, 33.887 37.780, 32 39 M 64.894 40.523 C 66.604 45.888, 67.028 46.553, 66.491 43.031 C 66.200 41.123, 65.509 39.109, 64.954 38.554 C 64.276 37.876, 64.257 38.521, 64.894 40.523 M 20.750 40.662 C 21.438 40.940, 22.563 40.940, 23.250 40.662 C 23.938 40.385, 23.375 40.158, 22 40.158 C 20.625 40.158, 20.063 40.385, 20.750 40.662 M 26.750 40.662 C 27.438 40.940, 28.563 40.940, 29.250 40.662 C 29.938 40.385, 29.375 40.158, 28 40.158 C 26.625 40.158, 26.063 40.385, 26.750 40.662 M 31.079 47.583 C 31.127 48.748, 31.364 48.985, 31.683 48.188 C 31.972 47.466, 31.936 46.603, 31.604 46.271 C 31.272 45.939, 31.036 46.529, 31.079 47.583 M 33 54.941 C 33 55.459, 33.445 56.157, 33.989 56.493 C 34.555 56.843, 34.723 56.442, 34.382 55.552 C 33.717 53.820, 33 53.503, 33 54.941 M 35 58.378 C 35 58.585, 35.788 59.373, 36.750 60.128 C 38.336 61.371, 38.371 61.336, 37.128 59.750 C 35.821 58.084, 35 57.555, 35 58.378 M 43 63.954 C 43.825 64.513, 45.363 64.976, 46.417 64.985 C 48.975 65.005, 48.177 64.433, 44.500 63.610 C 42.309 63.120, 41.905 63.213, 43 63.954 M 65 64 C 64.099 64.582, 63.975 64.975, 64.691 64.985 C 65.346 64.993, 66.160 64.550, 66.500 64 C 67.267 62.758, 66.921 62.758, 65 64" stroke="none" fill="none" fill-rule="evenodd"></path></g>
</svg>